<?xml version="1.0" encoding="UTF-8"?>
<svg xmlns="http://www.w3.org/2000/svg" xmlns:xlink="http://www.w3.org/1999/xlink" width="854" height="480" viewBox="0 0 854 480">
<defs>
<g>
<g id="glyph-0-0">
<path d="M 1.125 -1.132812 C 1.265625 -1.152344 1.445312 -1.15625 1.671875 -1.15625 L 2.875 -1.15625 L 2.875 -0.769531 C 2.875 -0.574219 2.867188 -0.453125 2.839844 -0.285156 L 3.261719 -0.285156 C 3.234375 -0.441406 3.230469 -0.542969 3.230469 -0.769531 L 3.230469 -1.15625 L 3.398438 -1.15625 C 3.566406 -1.15625 3.699219 -1.144531 3.867188 -1.125 L 3.867188 -1.515625 C 3.726562 -1.488281 3.625 -1.484375 3.394531 -1.484375 L 3.230469 -1.484375 L 3.230469 -2.957031 C 3.230469 -3.351562 3.234375 -3.46875 3.257812 -3.714844 L 2.886719 -3.714844 C 2.777344 -3.542969 2.746094 -3.492188 2.554688 -3.257812 L 1.417969 -1.835938 C 1.347656 -1.742188 1.207031 -1.582031 1.125 -1.492188 Z M 2.875 -1.476562 L 1.546875 -1.476562 L 2.589844 -2.796875 C 2.753906 -3.003906 2.769531 -3.023438 2.898438 -3.207031 C 2.882812 -3.003906 2.875 -2.828125 2.875 -2.613281 Z M 2.640625 -4.539062 C 1.246094 -4.539062 0.109375 -3.402344 0.109375 -2.011719 C 0.109375 -0.613281 1.246094 0.523438 2.640625 0.523438 C 4.039062 0.523438 5.167969 -0.613281 5.167969 -2.011719 C 5.167969 -3.410156 4.039062 -4.539062 2.640625 -4.539062 Z M 2.640625 -4.363281 C 3.9375 -4.363281 4.992188 -3.308594 4.992188 -2.011719 C 4.992188 -0.707031 3.9375 0.347656 2.640625 0.347656 C 1.339844 0.347656 0.285156 -0.707031 0.285156 -2.011719 C 0.285156 -3.308594 1.339844 -4.363281 2.640625 -4.363281 Z "/>
</g>
<g id="glyph-1-0">
<rect x="0" y="0" width="0" height="0" mask="url(#mask-0)"/>
</g>
<g id="glyph-1-1">
<path d="M 0.101562 -0.0703125 C 0.285156 -0.0820312 0.40625 -0.113281 0.460938 -0.175781 C 0.519531 -0.234375 0.550781 -0.359375 0.550781 -0.550781 L 0.550781 -2.203125 L 0.109375 -2.203125 L 0.109375 -2.375 L 0.550781 -2.375 C 0.550781 -2.648438 0.585938 -2.875 0.660156 -3.0625 C 0.800781 -3.421875 1.058594 -3.601562 1.433594 -3.601562 C 1.585938 -3.601562 1.722656 -3.574219 1.839844 -3.511719 C 1.960938 -3.453125 2.019531 -3.371094 2.019531 -3.269531 C 2.019531 -3.214844 2 -3.164062 1.957031 -3.117188 C 1.917969 -3.074219 1.867188 -3.050781 1.808594 -3.050781 C 1.757812 -3.050781 1.714844 -3.066406 1.679688 -3.097656 C 1.644531 -3.125 1.601562 -3.179688 1.550781 -3.253906 L 1.507812 -3.320312 C 1.484375 -3.355469 1.453125 -3.386719 1.421875 -3.414062 C 1.390625 -3.4375 1.34375 -3.449219 1.285156 -3.449219 C 1.15625 -3.449219 1.066406 -3.386719 1.019531 -3.257812 C 0.996094 -3.1875 0.980469 -3.097656 0.980469 -2.988281 L 0.980469 -2.375 L 1.628906 -2.375 L 1.628906 -2.203125 L 0.988281 -2.203125 L 0.988281 -0.550781 C 0.988281 -0.355469 1.011719 -0.230469 1.066406 -0.175781 C 1.117188 -0.121094 1.253906 -0.0859375 1.476562 -0.0703125 L 1.476562 0 L 0.101562 0 Z "/>
</g>
<g id="glyph-1-2">
<path d="M 1.511719 -1.425781 C 1.316406 -1.363281 1.152344 -1.289062 1.023438 -1.210938 C 0.777344 -1.058594 0.652344 -0.882812 0.652344 -0.691406 C 0.652344 -0.535156 0.703125 -0.417969 0.804688 -0.34375 C 0.871094 -0.296875 0.949219 -0.273438 1.03125 -0.273438 C 1.144531 -0.273438 1.253906 -0.304688 1.355469 -0.367188 C 1.460938 -0.429688 1.511719 -0.511719 1.511719 -0.609375 Z M 0.191406 -0.511719 C 0.191406 -0.761719 0.316406 -0.96875 0.566406 -1.136719 C 0.726562 -1.238281 1.039062 -1.378906 1.511719 -1.554688 L 1.511719 -1.777344 C 1.511719 -1.953125 1.496094 -2.074219 1.460938 -2.140625 C 1.402344 -2.257812 1.28125 -2.3125 1.097656 -2.3125 C 1.011719 -2.3125 0.925781 -2.292969 0.847656 -2.246094 C 0.769531 -2.199219 0.730469 -2.136719 0.730469 -2.054688 C 0.730469 -2.035156 0.734375 -2 0.742188 -1.953125 C 0.75 -1.902344 0.753906 -1.871094 0.753906 -1.859375 C 0.753906 -1.761719 0.722656 -1.695312 0.660156 -1.65625 C 0.625 -1.632812 0.582031 -1.625 0.53125 -1.625 C 0.453125 -1.625 0.394531 -1.648438 0.351562 -1.699219 C 0.3125 -1.75 0.292969 -1.804688 0.292969 -1.867188 C 0.292969 -1.988281 0.367188 -2.113281 0.515625 -2.246094 C 0.664062 -2.378906 0.878906 -2.441406 1.167969 -2.441406 C 1.5 -2.441406 1.726562 -2.335938 1.84375 -2.117188 C 1.90625 -2 1.941406 -1.828125 1.941406 -1.601562 L 1.941406 -0.566406 C 1.941406 -0.46875 1.945312 -0.398438 1.960938 -0.359375 C 1.984375 -0.292969 2.03125 -0.261719 2.101562 -0.261719 C 2.140625 -0.261719 2.171875 -0.265625 2.199219 -0.277344 C 2.222656 -0.289062 2.269531 -0.320312 2.332031 -0.367188 L 2.332031 -0.230469 C 2.277344 -0.164062 2.21875 -0.109375 2.152344 -0.0664062 C 2.058594 0 1.960938 0.03125 1.859375 0.03125 C 1.742188 0.03125 1.660156 -0.0078125 1.605469 -0.0820312 C 1.554688 -0.15625 1.527344 -0.25 1.519531 -0.351562 C 1.390625 -0.238281 1.277344 -0.15625 1.183594 -0.101562 C 1.027344 -0.0078125 0.878906 0.0390625 0.738281 0.0390625 C 0.589844 0.0390625 0.464844 -0.0117188 0.355469 -0.117188 C 0.246094 -0.222656 0.191406 -0.351562 0.191406 -0.511719 Z "/>
</g>
<g id="glyph-1-3">
<path d="M 0.273438 -0.8125 L 0.359375 -0.8125 C 0.398438 -0.617188 0.449219 -0.464844 0.519531 -0.359375 C 0.640625 -0.167969 0.8125 -0.0703125 1.046875 -0.0703125 C 1.175781 -0.0703125 1.277344 -0.109375 1.351562 -0.179688 C 1.425781 -0.25 1.464844 -0.34375 1.464844 -0.457031 C 1.464844 -0.527344 1.441406 -0.597656 1.398438 -0.664062 C 1.355469 -0.730469 1.28125 -0.796875 1.171875 -0.859375 L 0.882812 -1.027344 C 0.671875 -1.140625 0.515625 -1.253906 0.417969 -1.367188 C 0.316406 -1.484375 0.269531 -1.617188 0.269531 -1.777344 C 0.269531 -1.96875 0.335938 -2.125 0.472656 -2.25 C 0.609375 -2.375 0.785156 -2.433594 0.992188 -2.433594 C 1.082031 -2.433594 1.183594 -2.417969 1.292969 -2.382812 C 1.402344 -2.347656 1.460938 -2.332031 1.476562 -2.332031 C 1.507812 -2.332031 1.53125 -2.335938 1.542969 -2.34375 C 1.558594 -2.351562 1.570312 -2.367188 1.578125 -2.386719 L 1.640625 -2.386719 L 1.660156 -1.667969 L 1.578125 -1.667969 C 1.542969 -1.835938 1.5 -1.964844 1.441406 -2.054688 C 1.335938 -2.226562 1.179688 -2.3125 0.980469 -2.3125 C 0.859375 -2.3125 0.765625 -2.277344 0.695312 -2.203125 C 0.625 -2.128906 0.59375 -2.042969 0.59375 -1.941406 C 0.59375 -1.785156 0.710938 -1.644531 0.949219 -1.519531 L 1.289062 -1.335938 C 1.65625 -1.136719 1.835938 -0.90625 1.835938 -0.640625 C 1.835938 -0.4375 1.761719 -0.273438 1.609375 -0.144531 C 1.457031 -0.015625 1.257812 0.0507812 1.011719 0.0507812 C 0.910156 0.0507812 0.792969 0.03125 0.664062 -0.00390625 C 0.53125 -0.0390625 0.453125 -0.0546875 0.429688 -0.0546875 C 0.410156 -0.0546875 0.390625 -0.046875 0.375 -0.03125 C 0.359375 -0.015625 0.347656 0 0.339844 0.0195312 L 0.273438 0.0195312 Z "/>
</g>
<g id="glyph-1-4">
<path d="M 1.34375 -2.375 L 1.34375 -2.191406 L 0.816406 -2.191406 L 0.8125 -0.707031 C 0.8125 -0.574219 0.824219 -0.476562 0.84375 -0.410156 C 0.886719 -0.292969 0.96875 -0.230469 1.085938 -0.230469 C 1.148438 -0.230469 1.203125 -0.246094 1.25 -0.277344 C 1.292969 -0.304688 1.347656 -0.351562 1.40625 -0.414062 L 1.472656 -0.359375 L 1.414062 -0.28125 C 1.324219 -0.160156 1.230469 -0.0742188 1.132812 -0.0273438 C 1.03125 0.0234375 0.933594 0.0507812 0.84375 0.0507812 C 0.640625 0.0507812 0.503906 -0.0429688 0.429688 -0.222656 C 0.390625 -0.320312 0.371094 -0.457031 0.371094 -0.628906 L 0.371094 -2.191406 L 0.0898438 -2.191406 C 0.0820312 -2.195312 0.0742188 -2.199219 0.0703125 -2.207031 C 0.0664062 -2.210938 0.0625 -2.21875 0.0625 -2.226562 C 0.0625 -2.242188 0.0664062 -2.257812 0.0742188 -2.265625 C 0.0820312 -2.277344 0.109375 -2.296875 0.148438 -2.332031 C 0.269531 -2.429688 0.351562 -2.507812 0.40625 -2.570312 C 0.457031 -2.632812 0.582031 -2.792969 0.777344 -3.054688 C 0.796875 -3.054688 0.8125 -3.050781 0.816406 -3.046875 C 0.820312 -3.042969 0.820312 -3.03125 0.820312 -3.007812 L 0.820312 -2.375 Z "/>
</g>
<g id="glyph-1-5">
<path d="M 0.578125 -3.328125 C 0.578125 -3.402344 0.605469 -3.464844 0.65625 -3.515625 C 0.707031 -3.570312 0.773438 -3.597656 0.847656 -3.597656 C 0.921875 -3.597656 0.984375 -3.570312 1.039062 -3.515625 C 1.089844 -3.464844 1.117188 -3.402344 1.117188 -3.328125 C 1.117188 -3.253906 1.089844 -3.191406 1.039062 -3.136719 C 0.984375 -3.085938 0.921875 -3.058594 0.847656 -3.058594 C 0.773438 -3.058594 0.707031 -3.085938 0.65625 -3.136719 C 0.605469 -3.191406 0.578125 -3.253906 0.578125 -3.328125 Z M -0.09375 0.65625 C -0.00390625 0.65625 0.0820312 0.707031 0.167969 0.816406 C 0.253906 0.925781 0.328125 0.980469 0.394531 0.980469 C 0.503906 0.980469 0.574219 0.917969 0.613281 0.792969 C 0.636719 0.714844 0.648438 0.589844 0.648438 0.414062 C 0.652344 0.347656 0.652344 0.191406 0.652344 -0.0585938 L 0.652344 -1.753906 C 0.652344 -1.871094 0.640625 -1.957031 0.617188 -2.011719 C 0.59375 -2.066406 0.542969 -2.09375 0.464844 -2.09375 C 0.441406 -2.09375 0.410156 -2.089844 0.371094 -2.082031 C 0.332031 -2.074219 0.292969 -2.0625 0.25 -2.050781 L 0.25 -2.132812 L 0.46875 -2.203125 C 0.523438 -2.21875 0.589844 -2.242188 0.675781 -2.273438 C 0.761719 -2.304688 0.84375 -2.332031 0.921875 -2.363281 L 1.074219 -2.417969 C 1.082031 -2.40625 1.085938 -2.394531 1.085938 -2.382812 L 1.085938 0 C 1.085938 0.296875 1.046875 0.527344 0.972656 0.695312 C 0.835938 1 0.570312 1.15625 0.183594 1.15625 C 0.0546875 1.15625 -0.0585938 1.128906 -0.15625 1.078125 C -0.253906 1.027344 -0.304688 0.957031 -0.304688 0.871094 C -0.304688 0.8125 -0.285156 0.765625 -0.246094 0.71875 C -0.207031 0.675781 -0.15625 0.65625 -0.09375 0.65625 Z "/>
</g>
<g id="glyph-1-6">
<path d="M 0.816406 -2.386719 L 0.816406 -0.738281 C 0.816406 -0.621094 0.832031 -0.527344 0.867188 -0.457031 C 0.929688 -0.324219 1.046875 -0.261719 1.214844 -0.261719 C 1.332031 -0.261719 1.449219 -0.300781 1.558594 -0.375 C 1.621094 -0.417969 1.6875 -0.476562 1.753906 -0.554688 L 1.753906 -1.964844 C 1.753906 -2.097656 1.726562 -2.183594 1.675781 -2.226562 C 1.625 -2.269531 1.519531 -2.292969 1.367188 -2.300781 L 1.367188 -2.386719 L 2.199219 -2.386719 L 2.199219 -0.570312 C 2.199219 -0.453125 2.21875 -0.375 2.261719 -0.332031 C 2.304688 -0.289062 2.390625 -0.269531 2.527344 -0.273438 L 2.527344 -0.199219 C 2.433594 -0.175781 2.363281 -0.15625 2.320312 -0.144531 C 2.273438 -0.128906 2.199219 -0.105469 2.09375 -0.0703125 C 2.050781 -0.0546875 1.953125 -0.0195312 1.800781 0.0390625 C 1.792969 0.0390625 1.789062 0.0351562 1.785156 0.0273438 C 1.785156 0.0195312 1.78125 0.0117188 1.78125 0 L 1.78125 -0.414062 C 1.664062 -0.277344 1.558594 -0.171875 1.464844 -0.105469 C 1.316406 -0.00390625 1.164062 0.0507812 1 0.0507812 C 0.851562 0.0507812 0.710938 -0.00390625 0.578125 -0.109375 C 0.445312 -0.214844 0.375 -0.390625 0.375 -0.640625 L 0.375 -1.976562 C 0.375 -2.113281 0.347656 -2.207031 0.289062 -2.253906 C 0.25 -2.28125 0.171875 -2.300781 0.046875 -2.3125 L 0.046875 -2.386719 Z "/>
</g>
<g id="glyph-1-7">
<path d="M 0.0859375 -0.0664062 C 0.21875 -0.078125 0.308594 -0.101562 0.351562 -0.132812 C 0.421875 -0.183594 0.457031 -0.285156 0.457031 -0.433594 L 0.457031 -1.765625 C 0.457031 -1.890625 0.4375 -1.976562 0.40625 -2.015625 C 0.371094 -2.054688 0.316406 -2.074219 0.238281 -2.074219 C 0.203125 -2.074219 0.175781 -2.074219 0.160156 -2.070312 C 0.140625 -2.066406 0.121094 -2.058594 0.09375 -2.050781 L 0.09375 -2.140625 L 0.28125 -2.203125 C 0.347656 -2.226562 0.457031 -2.265625 0.609375 -2.324219 C 0.761719 -2.382812 0.84375 -2.410156 0.851562 -2.410156 C 0.859375 -2.410156 0.867188 -2.40625 0.867188 -2.398438 C 0.871094 -2.390625 0.871094 -2.375 0.871094 -2.351562 L 0.871094 -2.003906 C 1.042969 -2.15625 1.1875 -2.265625 1.3125 -2.324219 C 1.4375 -2.382812 1.5625 -2.410156 1.691406 -2.410156 C 1.871094 -2.410156 2.011719 -2.351562 2.117188 -2.230469 C 2.171875 -2.164062 2.214844 -2.078125 2.253906 -1.964844 C 2.378906 -2.09375 2.488281 -2.191406 2.585938 -2.253906 C 2.75 -2.359375 2.914062 -2.410156 3.085938 -2.410156 C 3.363281 -2.410156 3.546875 -2.300781 3.636719 -2.074219 C 3.691406 -1.945312 3.71875 -1.746094 3.71875 -1.472656 L 3.71875 -0.402344 C 3.71875 -0.28125 3.746094 -0.195312 3.800781 -0.152344 C 3.855469 -0.109375 3.949219 -0.0820312 4.09375 -0.0664062 L 4.09375 0 L 2.929688 0 L 2.929688 -0.0703125 C 3.078125 -0.0859375 3.175781 -0.117188 3.226562 -0.164062 C 3.273438 -0.210938 3.296875 -0.304688 3.296875 -0.445312 L 3.296875 -1.554688 C 3.296875 -1.722656 3.277344 -1.847656 3.242188 -1.925781 C 3.179688 -2.066406 3.054688 -2.136719 2.867188 -2.136719 C 2.757812 -2.136719 2.644531 -2.097656 2.535156 -2.023438 C 2.472656 -1.980469 2.394531 -1.914062 2.300781 -1.820312 L 2.300781 -0.5 C 2.300781 -0.359375 2.324219 -0.253906 2.375 -0.183594 C 2.421875 -0.109375 2.527344 -0.0703125 2.683594 -0.0664062 L 2.683594 0 L 1.503906 0 L 1.503906 -0.0664062 C 1.667969 -0.0859375 1.769531 -0.128906 1.8125 -0.183594 C 1.859375 -0.242188 1.882812 -0.386719 1.882812 -0.617188 L 1.882812 -1.335938 C 1.882812 -1.601562 1.863281 -1.785156 1.828125 -1.882812 C 1.773438 -2.050781 1.652344 -2.136719 1.46875 -2.136719 C 1.363281 -2.136719 1.261719 -2.105469 1.160156 -2.050781 C 1.058594 -1.992188 0.96875 -1.917969 0.890625 -1.824219 L 0.890625 -0.414062 C 0.890625 -0.285156 0.914062 -0.195312 0.960938 -0.144531 C 1.003906 -0.09375 1.105469 -0.0703125 1.257812 -0.0664062 L 1.257812 0 L 0.0859375 0 Z "/>
</g>
<g id="glyph-1-8">
<path d="M 0.84375 -0.472656 C 0.886719 -0.355469 0.953125 -0.269531 1.042969 -0.210938 C 1.132812 -0.15625 1.234375 -0.125 1.355469 -0.125 C 1.539062 -0.125 1.699219 -0.21875 1.832031 -0.402344 C 1.960938 -0.585938 2.027344 -0.84375 2.027344 -1.175781 C 2.027344 -1.492188 1.960938 -1.726562 1.824219 -1.882812 C 1.6875 -2.039062 1.527344 -2.117188 1.347656 -2.117188 C 1.21875 -2.117188 1.105469 -2.078125 1 -2 C 0.894531 -1.921875 0.84375 -1.847656 0.84375 -1.769531 Z M 0.0234375 1.0625 C 0.183594 1.054688 0.289062 1.019531 0.332031 0.960938 C 0.375 0.902344 0.398438 0.8125 0.398438 0.683594 L 0.398438 -1.789062 C 0.398438 -1.917969 0.382812 -2.003906 0.347656 -2.039062 C 0.316406 -2.078125 0.257812 -2.09375 0.171875 -2.09375 C 0.152344 -2.09375 0.132812 -2.09375 0.117188 -2.09375 C 0.101562 -2.089844 0.078125 -2.085938 0.046875 -2.082031 L 0.046875 -2.167969 L 0.292969 -2.246094 C 0.300781 -2.25 0.472656 -2.308594 0.808594 -2.425781 C 0.816406 -2.425781 0.824219 -2.421875 0.828125 -2.414062 C 0.832031 -2.40625 0.835938 -2.394531 0.835938 -2.386719 L 0.835938 -2.039062 C 0.949219 -2.152344 1.046875 -2.234375 1.132812 -2.289062 C 1.289062 -2.386719 1.449219 -2.433594 1.609375 -2.433594 C 1.847656 -2.433594 2.050781 -2.335938 2.222656 -2.132812 C 2.394531 -1.929688 2.480469 -1.65625 2.480469 -1.304688 C 2.480469 -0.960938 2.375 -0.648438 2.171875 -0.367188 C 1.964844 -0.0898438 1.707031 0.0507812 1.398438 0.0507812 C 1.300781 0.0507812 1.21875 0.0390625 1.148438 0.015625 C 1.039062 -0.0195312 0.933594 -0.0859375 0.84375 -0.183594 L 0.84375 0.660156 C 0.84375 0.832031 0.871094 0.941406 0.925781 0.980469 C 0.984375 1.019531 1.109375 1.046875 1.296875 1.058594 L 1.296875 1.148438 L 0.0234375 1.148438 Z "/>
</g>
<g id="glyph-1-9">
<path d="M 0.0195312 -3.277344 L 0.0195312 -3.367188 C 0.214844 -3.410156 0.390625 -3.460938 0.546875 -3.515625 C 0.703125 -3.570312 0.785156 -3.597656 0.796875 -3.597656 C 0.800781 -3.585938 0.804688 -3.578125 0.804688 -3.566406 L 0.804688 -1.996094 C 0.847656 -2.078125 0.914062 -2.15625 1.003906 -2.230469 C 1.164062 -2.359375 1.34375 -2.425781 1.550781 -2.425781 C 1.804688 -2.425781 2.019531 -2.316406 2.199219 -2.105469 C 2.378906 -1.890625 2.464844 -1.617188 2.464844 -1.277344 C 2.464844 -0.910156 2.351562 -0.597656 2.117188 -0.339844 C 1.886719 -0.0820312 1.582031 0.0507812 1.203125 0.0507812 C 1.011719 0.0507812 0.824219 0.0117188 0.640625 -0.0625 C 0.457031 -0.140625 0.367188 -0.214844 0.367188 -0.292969 L 0.367188 -3.015625 C 0.367188 -3.113281 0.351562 -3.183594 0.324219 -3.226562 C 0.296875 -3.269531 0.234375 -3.289062 0.132812 -3.289062 Z M 0.792969 -0.375 C 0.808594 -0.285156 0.875 -0.222656 0.996094 -0.183594 C 1.113281 -0.144531 1.21875 -0.125 1.304688 -0.125 C 1.546875 -0.125 1.726562 -0.214844 1.839844 -0.398438 C 1.957031 -0.578125 2.015625 -0.796875 2.015625 -1.050781 C 2.015625 -1.308594 1.960938 -1.542969 1.851562 -1.761719 C 1.742188 -1.980469 1.570312 -2.085938 1.328125 -2.085938 C 1.207031 -2.085938 1.085938 -2.050781 0.96875 -1.976562 C 0.851562 -1.902344 0.792969 -1.804688 0.792969 -1.691406 Z "/>
</g>
<g id="glyph-1-10">
<path d="M 1.3125 -2.429688 C 1.527344 -2.429688 1.710938 -2.375 1.867188 -2.265625 C 2.023438 -2.152344 2.101562 -2.03125 2.101562 -1.898438 C 2.101562 -1.84375 2.082031 -1.789062 2.039062 -1.742188 C 2 -1.691406 1.941406 -1.667969 1.859375 -1.667969 C 1.796875 -1.667969 1.746094 -1.6875 1.699219 -1.730469 C 1.652344 -1.769531 1.621094 -1.832031 1.601562 -1.910156 L 1.570312 -2.03125 C 1.546875 -2.125 1.507812 -2.1875 1.453125 -2.226562 C 1.398438 -2.261719 1.320312 -2.28125 1.230469 -2.28125 C 1.035156 -2.28125 0.867188 -2.195312 0.734375 -2.023438 C 0.597656 -1.851562 0.53125 -1.625 0.53125 -1.34375 C 0.53125 -1.082031 0.605469 -0.851562 0.753906 -0.644531 C 0.902344 -0.4375 1.101562 -0.335938 1.355469 -0.335938 C 1.535156 -0.335938 1.691406 -0.394531 1.832031 -0.511719 C 1.910156 -0.578125 2 -0.683594 2.101562 -0.828125 L 2.171875 -0.785156 C 2.074219 -0.578125 1.972656 -0.417969 1.863281 -0.296875 C 1.65625 -0.0664062 1.414062 0.0507812 1.140625 0.0507812 C 0.875 0.0507812 0.636719 -0.0585938 0.429688 -0.269531 C 0.222656 -0.480469 0.121094 -0.765625 0.121094 -1.128906 C 0.121094 -1.484375 0.234375 -1.789062 0.457031 -2.046875 C 0.683594 -2.300781 0.96875 -2.429688 1.3125 -2.429688 Z "/>
</g>
<g id="glyph-1-11">
<path d="M 0.0117188 -0.0703125 C 0.175781 -0.0820312 0.285156 -0.113281 0.335938 -0.15625 C 0.386719 -0.199219 0.414062 -0.289062 0.414062 -0.433594 L 0.414062 -3.015625 C 0.414062 -3.136719 0.394531 -3.214844 0.351562 -3.246094 C 0.3125 -3.277344 0.253906 -3.296875 0.175781 -3.296875 C 0.144531 -3.296875 0.113281 -3.292969 0.0898438 -3.292969 C 0.0664062 -3.292969 0.0390625 -3.289062 0.0117188 -3.285156 L 0.0117188 -3.359375 L 0.242188 -3.417969 C 0.417969 -3.464844 0.570312 -3.507812 0.691406 -3.550781 C 0.769531 -3.578125 0.8125 -3.589844 0.824219 -3.589844 C 0.835938 -3.589844 0.839844 -3.585938 0.84375 -3.582031 C 0.847656 -3.578125 0.847656 -3.570312 0.847656 -3.554688 L 0.847656 -1.386719 L 1.5625 -2.015625 C 1.613281 -2.0625 1.648438 -2.097656 1.664062 -2.125 C 1.683594 -2.152344 1.691406 -2.175781 1.691406 -2.199219 C 1.691406 -2.238281 1.671875 -2.261719 1.636719 -2.273438 C 1.597656 -2.285156 1.527344 -2.289062 1.425781 -2.296875 L 1.425781 -2.367188 L 2.503906 -2.367188 L 2.503906 -2.296875 C 2.308594 -2.285156 2.15625 -2.246094 2.039062 -2.179688 C 1.921875 -2.117188 1.699219 -1.933594 1.367188 -1.628906 L 1.214844 -1.488281 L 1.691406 -0.871094 C 1.933594 -0.554688 2.117188 -0.34375 2.242188 -0.242188 C 2.367188 -0.136719 2.496094 -0.078125 2.636719 -0.0664062 L 2.636719 0 L 1.488281 0 L 1.488281 -0.0703125 L 1.578125 -0.078125 C 1.609375 -0.078125 1.636719 -0.0859375 1.660156 -0.09375 C 1.683594 -0.105469 1.695312 -0.121094 1.695312 -0.148438 C 1.695312 -0.167969 1.691406 -0.183594 1.683594 -0.199219 C 1.675781 -0.214844 1.660156 -0.234375 1.648438 -0.253906 L 0.847656 -1.304688 L 0.847656 -0.351562 C 0.847656 -0.234375 0.890625 -0.15625 0.980469 -0.117188 C 1.03125 -0.09375 1.121094 -0.078125 1.246094 -0.078125 L 1.246094 0 L 0.0117188 0 Z "/>
</g>
<g id="glyph-1-12">
<path d="M 0.0234375 -0.0859375 C 0.179688 -0.0976562 0.285156 -0.125 0.335938 -0.167969 C 0.386719 -0.210938 0.414062 -0.300781 0.414062 -0.4375 L 0.414062 -1.601562 C 0.414062 -1.769531 0.398438 -1.890625 0.367188 -1.964844 C 0.335938 -2.039062 0.277344 -2.074219 0.191406 -2.074219 C 0.175781 -2.074219 0.152344 -2.070312 0.125 -2.066406 C 0.0976562 -2.0625 0.0664062 -2.058594 0.0351562 -2.050781 L 0.0351562 -2.136719 C 0.132812 -2.171875 0.234375 -2.207031 0.335938 -2.242188 C 0.441406 -2.277344 0.511719 -2.304688 0.550781 -2.320312 C 0.636719 -2.351562 0.726562 -2.390625 0.816406 -2.429688 C 0.828125 -2.429688 0.835938 -2.425781 0.839844 -2.417969 C 0.839844 -2.410156 0.84375 -2.390625 0.84375 -2.363281 L 0.84375 -1.941406 C 0.953125 -2.09375 1.058594 -2.210938 1.160156 -2.296875 C 1.261719 -2.382812 1.371094 -2.425781 1.480469 -2.425781 C 1.566406 -2.425781 1.636719 -2.402344 1.691406 -2.347656 C 1.746094 -2.296875 1.777344 -2.230469 1.777344 -2.152344 C 1.777344 -2.082031 1.753906 -2.023438 1.710938 -1.972656 C 1.667969 -1.925781 1.617188 -1.902344 1.554688 -1.902344 C 1.488281 -1.902344 1.421875 -1.933594 1.355469 -1.992188 C 1.289062 -2.050781 1.238281 -2.082031 1.199219 -2.082031 C 1.140625 -2.082031 1.066406 -2.035156 0.980469 -1.9375 C 0.890625 -1.839844 0.847656 -1.738281 0.847656 -1.636719 L 0.847656 -0.472656 C 0.847656 -0.324219 0.882812 -0.222656 0.949219 -0.167969 C 1.019531 -0.109375 1.132812 -0.0820312 1.292969 -0.0859375 L 1.292969 0 L 0.0234375 0 Z "/>
</g>
<g id="glyph-1-13">
<path d="M 1.207031 -2.417969 C 1.449219 -2.417969 1.664062 -2.332031 1.84375 -2.164062 C 2.027344 -1.996094 2.117188 -1.761719 2.117188 -1.453125 L 0.480469 -1.453125 C 0.5 -1.054688 0.589844 -0.765625 0.753906 -0.582031 C 0.917969 -0.398438 1.109375 -0.308594 1.332031 -0.308594 C 1.511719 -0.308594 1.664062 -0.355469 1.789062 -0.449219 C 1.914062 -0.542969 2.027344 -0.679688 2.132812 -0.851562 L 2.222656 -0.820312 C 2.152344 -0.601562 2.019531 -0.402344 1.824219 -0.214844 C 1.632812 -0.03125 1.394531 0.0625 1.117188 0.0625 C 0.792969 0.0625 0.542969 -0.0585938 0.367188 -0.304688 C 0.191406 -0.546875 0.101562 -0.828125 0.101562 -1.148438 C 0.101562 -1.492188 0.207031 -1.789062 0.410156 -2.039062 C 0.613281 -2.292969 0.878906 -2.417969 1.207031 -2.417969 Z M 1.058594 -2.230469 C 0.863281 -2.230469 0.714844 -2.140625 0.609375 -1.96875 C 0.554688 -1.875 0.515625 -1.757812 0.492188 -1.617188 L 1.578125 -1.617188 C 1.558594 -1.789062 1.527344 -1.917969 1.480469 -2.003906 C 1.398438 -2.152344 1.257812 -2.230469 1.058594 -2.230469 Z "/>
</g>
<g id="glyph-2-0">
<path d="M 4.734375 -1.90625 L 3.621094 -3.019531 L 3.621094 -2.097656 L 0.601562 -2.097656 L 0.601562 -1.714844 L 3.621094 -1.714844 L 3.621094 -0.792969 Z "/>
</g>
</g>
<image id="source-71" x="0" y="0" width="0" height="0"/>
<mask id="mask-0">
<use xlink:href="#source-71"/>
</mask>
</defs>
<g fill="rgb(37.647059%, 72.156863%, 94.117647%)" fill-opacity="1">
<use xlink:href="#glyph-0-0" x="30" y="25.102539"/>
</g>
<g fill="rgb(37.647059%, 72.156863%, 94.117647%)" fill-opacity="1">
<use xlink:href="#glyph-1-0" x="35" y="25.102539"/>
<use xlink:href="#glyph-1-1" x="36" y="25.102539"/>
<use xlink:href="#glyph-1-2" x="38" y="25.102539"/>
<use xlink:href="#glyph-1-3" x="40" y="25.102539"/>
<use xlink:href="#glyph-1-4" x="42" y="25.102539"/>
<use xlink:href="#glyph-1-0" x="43" y="25.102539"/>
<use xlink:href="#glyph-1-5" x="44" y="25.102539"/>
<use xlink:href="#glyph-1-6" x="45" y="25.102539"/>
<use xlink:href="#glyph-1-7" x="48" y="25.102539"/>
<use xlink:href="#glyph-1-8" x="52" y="25.102539"/>
<use xlink:href="#glyph-1-0" x="55" y="25.102539"/>
<use xlink:href="#glyph-1-9" x="56" y="25.102539"/>
<use xlink:href="#glyph-1-2" x="59" y="25.102539"/>
<use xlink:href="#glyph-1-10" x="61" y="25.102539"/>
<use xlink:href="#glyph-1-11" x="63" y="25.102539"/>
<use xlink:href="#glyph-1-0" x="66" y="25.102539"/>
</g>
<g fill="rgb(37.647059%, 72.156863%, 94.117647%)" fill-opacity="1">
<use xlink:href="#glyph-2-0" x="67" y="25.102539"/>
</g>
<g fill="rgb(37.647059%, 72.156863%, 94.117647%)" fill-opacity="1">
<use xlink:href="#glyph-1-0" x="72" y="25.102539"/>
<use xlink:href="#glyph-1-12" x="73" y="25.102539"/>
<use xlink:href="#glyph-1-13" x="75" y="25.102539"/>
<use xlink:href="#glyph-1-3" x="77" y="25.102539"/>
<use xlink:href="#glyph-1-4" x="79" y="25.102539"/>
</g>
</svg>
