<?xml version="1.0" encoding="UTF-8"?>
<svg xmlns="http://www.w3.org/2000/svg" xmlns:xlink="http://www.w3.org/1999/xlink" width="854" height="480" viewBox="0 0 854 480">
<defs>
<g>
<g id="glyph-0-0">
<path d="M 0.230469 -1.554688 L 0.421875 -1.554688 C 0.53125 -1.058594 0.707031 -0.699219 0.949219 -0.472656 C 1.191406 -0.246094 1.46875 -0.132812 1.78125 -0.132812 C 2.085938 -0.132812 2.300781 -0.210938 2.429688 -0.367188 C 2.558594 -0.523438 2.621094 -0.683594 2.621094 -0.855469 C 2.621094 -1.054688 2.554688 -1.21875 2.417969 -1.34375 C 2.328125 -1.425781 2.152344 -1.535156 1.882812 -1.667969 L 1.449219 -1.882812 C 1.019531 -2.09375 0.714844 -2.304688 0.539062 -2.511719 C 0.363281 -2.722656 0.277344 -2.980469 0.277344 -3.285156 C 0.277344 -3.609375 0.394531 -3.914062 0.625 -4.195312 C 0.859375 -4.476562 1.21875 -4.621094 1.699219 -4.621094 C 1.945312 -4.621094 2.179688 -4.582031 2.410156 -4.507812 C 2.640625 -4.433594 2.769531 -4.398438 2.804688 -4.398438 C 2.878906 -4.398438 2.925781 -4.417969 2.957031 -4.460938 C 2.984375 -4.503906 3.007812 -4.558594 3.023438 -4.628906 L 3.222656 -4.628906 L 3.222656 -3.175781 L 3.039062 -3.175781 C 2.949219 -3.511719 2.792969 -3.804688 2.566406 -4.046875 C 2.34375 -4.289062 2.070312 -4.410156 1.75 -4.410156 C 1.523438 -4.410156 1.34375 -4.351562 1.210938 -4.226562 C 1.082031 -4.105469 1.015625 -3.957031 1.015625 -3.78125 C 1.015625 -3.570312 1.078125 -3.410156 1.203125 -3.308594 C 1.324219 -3.203125 1.59375 -3.042969 2.011719 -2.839844 L 2.511719 -2.589844 C 2.734375 -2.480469 2.914062 -2.359375 3.046875 -2.222656 C 3.292969 -1.972656 3.417969 -1.664062 3.417969 -1.304688 C 3.417969 -0.96875 3.285156 -0.652344 3.019531 -0.351562 C 2.753906 -0.0546875 2.328125 0.09375 1.742188 0.09375 C 1.605469 0.09375 1.472656 0.0820312 1.332031 0.0585938 C 1.195312 0.03125 1.058594 -0.0078125 0.925781 -0.0585938 L 0.792969 -0.109375 C 0.761719 -0.117188 0.734375 -0.125 0.707031 -0.128906 C 0.679688 -0.132812 0.65625 -0.136719 0.636719 -0.136719 C 0.566406 -0.136719 0.519531 -0.117188 0.492188 -0.078125 C 0.464844 -0.0351562 0.441406 0.0195312 0.421875 0.09375 L 0.230469 0.09375 Z "/>
</g>
<g id="glyph-0-1">
<path d="M 1.742188 -2.253906 C 2.140625 -2.257812 2.402344 -2.304688 2.535156 -2.390625 C 2.746094 -2.523438 2.851562 -2.8125 2.851562 -3.257812 C 2.851562 -3.5625 2.800781 -3.808594 2.699219 -3.996094 C 2.597656 -4.179688 2.402344 -4.273438 2.113281 -4.273438 C 1.980469 -4.273438 1.886719 -4.257812 1.828125 -4.226562 C 1.769531 -4.195312 1.742188 -4.132812 1.742188 -4.042969 Z M 0.109375 -0.167969 C 0.328125 -0.183594 0.472656 -0.230469 0.546875 -0.308594 C 0.621094 -0.386719 0.660156 -0.542969 0.660156 -0.777344 L 0.660156 -3.722656 C 0.660156 -3.976562 0.621094 -4.136719 0.546875 -4.199219 C 0.472656 -4.265625 0.324219 -4.3125 0.109375 -4.335938 L 0.109375 -4.503906 L 2.253906 -4.503906 C 2.820312 -4.503906 3.253906 -4.414062 3.550781 -4.230469 C 3.847656 -4.042969 3.996094 -3.726562 3.996094 -3.277344 C 3.996094 -3.058594 3.9375 -2.851562 3.820312 -2.660156 C 3.703125 -2.46875 3.511719 -2.316406 3.246094 -2.199219 C 3.042969 -2.117188 2.84375 -2.066406 2.640625 -2.046875 C 2.4375 -2.03125 2.140625 -2.023438 1.742188 -2.023438 L 1.742188 -0.777344 C 1.742188 -0.53125 1.78125 -0.371094 1.867188 -0.296875 C 1.949219 -0.21875 2.101562 -0.179688 2.328125 -0.167969 L 2.328125 0 L 0.109375 0 Z "/>
</g>
<g id="glyph-0-2">
<path d="M 0.109375 -0.167969 C 0.296875 -0.171875 0.433594 -0.195312 0.515625 -0.238281 C 0.648438 -0.308594 0.714844 -0.441406 0.714844 -0.636719 L 0.714844 -3.863281 C 0.714844 -4.0625 0.652344 -4.195312 0.523438 -4.261719 C 0.445312 -4.300781 0.308594 -4.328125 0.109375 -4.335938 L 0.109375 -4.503906 L 2.4375 -4.503906 L 2.4375 -4.335938 C 2.230469 -4.328125 2.085938 -4.304688 2.007812 -4.265625 C 1.878906 -4.199219 1.8125 -4.0625 1.8125 -3.863281 L 1.8125 -0.636719 C 1.8125 -0.449219 1.867188 -0.328125 1.96875 -0.265625 C 2.074219 -0.203125 2.230469 -0.167969 2.4375 -0.167969 L 2.4375 0 L 0.109375 0 Z "/>
</g>
<g id="glyph-0-3">
<path d="M 0.167969 -0.167969 C 0.347656 -0.175781 0.476562 -0.199219 0.554688 -0.242188 C 0.683594 -0.3125 0.746094 -0.441406 0.746094 -0.636719 L 0.746094 -3.863281 C 0.746094 -4.058594 0.6875 -4.1875 0.570312 -4.253906 C 0.5 -4.296875 0.363281 -4.324219 0.167969 -4.335938 L 0.167969 -4.503906 L 2.421875 -4.503906 L 2.421875 -4.335938 C 2.191406 -4.316406 2.035156 -4.273438 1.957031 -4.207031 C 1.875 -4.140625 1.835938 -3.976562 1.835938 -3.722656 L 1.835938 -2.296875 L 3.273438 -3.75 C 3.371094 -3.851562 3.4375 -3.921875 3.464844 -3.964844 C 3.496094 -4.007812 3.507812 -4.058594 3.507812 -4.117188 C 3.507812 -4.203125 3.472656 -4.257812 3.394531 -4.28125 C 3.316406 -4.304688 3.167969 -4.324219 2.945312 -4.335938 L 2.945312 -4.503906 L 4.875 -4.503906 L 4.875 -4.335938 C 4.53125 -4.308594 4.246094 -4.210938 4.019531 -4.042969 C 3.792969 -3.875 3.363281 -3.46875 2.730469 -2.824219 L 4.765625 -0.304688 C 4.808594 -0.25 4.851562 -0.21875 4.894531 -0.203125 C 4.9375 -0.1875 5.003906 -0.179688 5.089844 -0.167969 L 5.089844 0 L 2.855469 0 L 2.855469 -0.167969 C 3.058594 -0.171875 3.195312 -0.179688 3.269531 -0.195312 C 3.34375 -0.210938 3.378906 -0.25 3.378906 -0.308594 C 3.378906 -0.335938 3.367188 -0.375 3.34375 -0.417969 C 3.320312 -0.460938 3.277344 -0.523438 3.214844 -0.597656 L 2.003906 -2.113281 L 1.835938 -1.945312 L 1.835938 -0.636719 C 1.835938 -0.445312 1.898438 -0.3125 2.027344 -0.246094 C 2.101562 -0.203125 2.230469 -0.179688 2.414062 -0.167969 L 2.414062 0 L 0.167969 0 Z "/>
</g>
<g id="glyph-0-4">
<path d="M 0.109375 0 L 0.109375 -0.167969 C 0.300781 -0.175781 0.433594 -0.203125 0.515625 -0.246094 C 0.636719 -0.316406 0.699219 -0.445312 0.699219 -0.636719 L 0.699219 -3.863281 C 0.699219 -4.058594 0.636719 -4.191406 0.507812 -4.257812 C 0.433594 -4.300781 0.300781 -4.324219 0.109375 -4.335938 L 0.109375 -4.503906 L 3.949219 -4.503906 L 3.949219 -3.160156 L 3.785156 -3.160156 C 3.699219 -3.589844 3.558594 -3.882812 3.355469 -4.042969 C 3.152344 -4.203125 2.78125 -4.28125 2.246094 -4.28125 C 2.042969 -4.28125 1.914062 -4.257812 1.855469 -4.21875 C 1.800781 -4.175781 1.773438 -4.089844 1.773438 -3.964844 L 1.773438 -2.421875 C 2.152344 -2.417969 2.410156 -2.488281 2.546875 -2.628906 C 2.679688 -2.769531 2.785156 -3.03125 2.855469 -3.410156 L 3.023438 -3.410156 L 3.023438 -1.15625 L 2.855469 -1.15625 C 2.808594 -1.535156 2.710938 -1.804688 2.5625 -1.957031 C 2.417969 -2.113281 2.152344 -2.191406 1.773438 -2.191406 L 1.773438 -0.578125 C 1.773438 -0.4375 1.808594 -0.339844 1.882812 -0.289062 C 1.957031 -0.238281 2.105469 -0.210938 2.332031 -0.210938 C 2.757812 -0.210938 3.101562 -0.292969 3.371094 -0.460938 C 3.640625 -0.625 3.878906 -0.933594 4.089844 -1.386719 L 4.273438 -1.386719 L 4.003906 0 Z "/>
</g>
<g id="glyph-0-5">
<path d="M 0.53125 -0.46875 C 0.53125 -0.625 0.585938 -0.757812 0.695312 -0.867188 C 0.804688 -0.976562 0.9375 -1.03125 1.09375 -1.03125 C 1.25 -1.03125 1.382812 -0.976562 1.492188 -0.867188 C 1.601562 -0.757812 1.65625 -0.625 1.65625 -0.46875 C 1.65625 -0.3125 1.601562 -0.179688 1.492188 -0.0703125 C 1.382812 0.0390625 1.25 0.09375 1.09375 0.09375 C 0.9375 0.09375 0.804688 0.0390625 0.695312 -0.0703125 C 0.585938 -0.179688 0.53125 -0.3125 0.53125 -0.46875 Z M 0.53125 -3.925781 C 0.53125 -4.171875 0.585938 -4.347656 0.699219 -4.453125 C 0.808594 -4.554688 0.941406 -4.605469 1.09375 -4.605469 C 1.242188 -4.605469 1.371094 -4.554688 1.484375 -4.453125 C 1.597656 -4.351562 1.65625 -4.183594 1.65625 -3.949219 C 1.65625 -3.875 1.640625 -3.765625 1.601562 -3.613281 C 1.566406 -3.464844 1.503906 -3.222656 1.410156 -2.882812 C 1.351562 -2.679688 1.316406 -2.511719 1.292969 -2.375 C 1.273438 -2.238281 1.242188 -1.964844 1.195312 -1.554688 L 1.003906 -1.554688 C 0.941406 -2.070312 0.898438 -2.390625 0.875 -2.511719 C 0.855469 -2.632812 0.8125 -2.804688 0.746094 -3.023438 C 0.664062 -3.304688 0.609375 -3.492188 0.585938 -3.585938 C 0.550781 -3.730469 0.53125 -3.84375 0.53125 -3.925781 Z "/>
</g>
</g>
</defs>
<g fill="rgb(100%, 60%, 26.666667%)" fill-opacity="1">
<use xlink:href="#glyph-0-0" x="30" y="25"/>
<use xlink:href="#glyph-0-1" x="34" y="25"/>
<use xlink:href="#glyph-0-2" x="38" y="25"/>
<use xlink:href="#glyph-0-3" x="41" y="25"/>
<use xlink:href="#glyph-0-4" x="46" y="25"/>
<use xlink:href="#glyph-0-5" x="50" y="25"/>
</g>
</svg>
